<?xml version="1.0" encoding="UTF-8"?>
<svg xmlns="http://www.w3.org/2000/svg" viewBox="0 0 1340.6 441.73">
  <g id="Calque_1" data-name="Calque 1">
    <g>
      <path d="M136.67,159.83h37.43l7.36-15.65h66.42l7.36,15.65h37.27L214.59,0l-77.92,159.83ZM195.73,115.19l18.87-41.72,18.87,41.72h-37.73Z"/>
      <path d="M455.87,1.84h-35.59v94.33c0,19.17-11.81,31.14-29.14,31.14s-29.14-11.96-29.14-31.14V1.84h-35.59v93.87c0,39.73,26.84,65.96,64.73,65.96s64.73-26.23,64.73-65.96V1.84Z"/>
      <path d="M357.55,280.7h17.49l3.53-7.36h31.14l3.53,7.36h17.49l-36.51-75.16-36.66,75.16ZM385.31,259.68l8.9-19.63,8.74,19.63h-17.64Z"/>
      <polygon points="294.66 222.87 312.45 222.87 312.45 280.7 329.17 280.7 329.17 222.87 347.12 222.87 347.12 206.46 294.66 206.46 294.66 222.87"/>
      <polygon points="97.41 124.55 35.9 124.55 35.9 1.84 .31 1.84 .31 159.83 97.41 159.83 97.41 124.55"/>
      <path d="M689.17,144.18h66.42l7.21,15.65h37.43L722.3,0l-77.92,159.83h37.43l7.36-15.65ZM722.3,73.47l18.87,41.72h-37.73l18.87-41.72Z"/>
      <rect x="254.63" y="206.46" width="16.72" height="74.24"/>
      <path d="M38.2,221.64c7.98,0,14.73,4.29,18.41,10.43l12.73-10.43c-6.9-9.66-18.41-16.11-31.14-16.11C17.34,205.54.31,222.56.31,243.58s17.03,37.89,37.89,37.89c12.73,0,24.24-6.29,31.14-16.11l-12.73-10.28c-3.68,5.98-10.43,10.28-18.41,10.28-11.96,0-21.01-9.97-21.01-21.78s9.05-21.93,21.01-21.93Z"/>
      <path d="M85.29,280.7h17.64l3.37-7.36h31.14l3.53,7.36h17.49l-36.51-75.16-36.66,75.16ZM113.05,259.68l8.9-19.63,8.74,19.63h-17.64Z"/>
      <path d="M204.93,206.46h-24.39v74.24h16.72v-23.93h7.67c14.57,0,25.46-11.2,25.46-25.16s-10.89-25.16-25.46-25.16ZM204.78,241.28h-7.52v-19.17h7.52c5.37,0,9.36,4.45,9.36,9.51s-3.99,9.66-9.36,9.66Z"/>
      <path d="M1175.87,243.58c0-21.01-17.03-38.04-37.89-38.04s-38.04,17.03-38.04,38.04,17.03,37.89,38.04,37.89c9.05,0,17.33-3.07,23.93-8.59l10.58,8.59,9.51-11.66-10.58-8.44c2.91-5.37,4.45-11.5,4.45-17.79ZM1157.92,250.33l-10.74-8.74-9.66,11.5,11.35,9.2c-3.07,1.99-6.9,3.07-10.89,3.07-12.12,0-21.17-9.97-21.17-21.78s9.05-21.93,21.17-21.93,21.01,9.97,21.01,21.93c0,2.3-.31,4.6-1.07,6.75Z"/>
      <rect x="1056.53" y="206.46" width="16.72" height="74.24"/>
      <path d="M1006.83,206.46h-24.54v74.24h16.87v-23.93h7.67c14.57,0,25.46-11.2,25.46-25.16s-10.89-25.16-25.46-25.16ZM1006.68,241.28h-7.52v-19.17h7.52c5.37,0,9.36,4.45,9.36,9.51s-3.99,9.66-9.36,9.66Z"/>
      <polygon points="1179.24 1.84 1143.66 1.84 1143.66 84.36 1043.8 0 1043.8 159.83 1079.54 159.83 1079.54 77.31 1179.24 161.67 1179.24 1.84"/>
      <polygon points="1294.59 280.7 1340.6 280.7 1340.6 264.13 1311.46 264.13 1311.46 251.55 1334.47 251.55 1334.47 235.45 1311.46 235.45 1311.46 222.87 1340.6 222.87 1340.6 206.46 1294.59 206.46 1294.59 280.7"/>
      <polygon points="1340.6 36.97 1340.6 1.84 1242.74 1.84 1242.74 159.83 1340.6 159.83 1340.6 124.7 1278.33 124.7 1278.33 98.01 1327.26 98.01 1327.26 63.66 1278.33 63.66 1278.33 36.97 1340.6 36.97"/>
      <path d="M1247.8,250.79c0,8.9-5.52,14.57-13.65,14.57s-13.8-5.68-13.8-14.57v-44.33h-16.72v44.02c0,18.71,12.73,30.98,30.52,30.98s30.37-12.27,30.37-30.98v-44.02h-16.72v44.33Z"/>
      <polygon points="469.52 206.46 452.8 206.46 452.8 280.7 498.36 280.7 498.36 263.98 469.52 263.98 469.52 206.46"/>
      <polygon points="944.87 84.36 845.01 0 845.01 159.83 880.6 159.83 880.6 77.31 980.45 161.67 980.45 1.84 944.87 1.84 944.87 84.36"/>
      <path d="M667.7,205.54c-20.86,0-37.89,17.03-37.89,38.04s17.03,37.89,37.89,37.89,37.89-17.03,37.89-37.89-17.03-38.04-37.89-38.04ZM667.7,265.36c-11.96,0-21.17-9.97-21.17-21.78s9.2-21.93,21.17-21.93,21.17,9.97,21.17,21.93-9.2,21.78-21.17,21.78Z"/>
      <path d="M580.11,69.64l-7.98-4.75c-12.58-7.52-19.17-13.65-19.17-20.86,0-6.6,5.98-10.28,12.88-10.28s14.25,3.75,20.23,12.64l18.88-29.98c-9.05-9.82-23.77-16.11-40.49-16.11-26.84,0-47.4,17.33-47.4,45.25,0,21.17,10.89,36.35,31.14,48.47l8.44,5.06c11.5,6.9,16.41,11.66,16.41,18.56,0,6.29-4.75,10.89-14.26,10.89-11.5,0-21.17-7.82-28.38-20.86l-21.63,29.6c9.05,12.58,26.69,24.7,51.23,24.7,28.68,0,49.24-19.48,49.24-47.55,0-20.25-10.58-33.75-29.14-44.79Z"/>
      <polygon points="877.53 203.93 877.53 280.7 894.25 280.7 894.25 242.89 914.5 263.29 934.9 242.89 934.9 280.7 951.62 280.7 951.62 203.93 914.5 241.05 877.53 203.93"/>
      <polygon points="521.52 280.7 567.54 280.7 567.54 264.13 538.39 264.13 538.39 251.55 561.25 251.55 561.25 235.45 538.39 235.45 538.39 222.87 567.54 222.87 567.54 206.46 521.52 206.46 521.52 280.7"/>
      <polygon points="826.37 232.24 810.19 206.46 789.49 206.46 815.99 248.04 800.22 272.84 813.09 283.46 862.19 206.5 842.56 206.46 826.37 232.24"/>
      <polygon points="748.53 206.46 731.81 206.46 731.81 280.7 777.37 280.7 777.37 263.98 748.53 263.98 748.53 206.46"/>
    </g>
  </g>
  <g id="Calque_4" data-name="Calque 4">
    <g>
      <path d="M35.16,377.11v5.17H5.74v22.32h24.16v5.25H5.74v24.25h29.42v5.17H.31v-62.16h34.84Z"/>
      <path d="M46.53,427.54c3.06,3.76,8.4,7.27,15.15,7.27,8.49,0,14.18-4.2,14.18-10.68,0-6.92-4.29-10.16-11.38-13.31l-6.57-2.8c-9.46-4.03-13.22-9.46-13.22-16.98,0-8.84,8.75-14.62,17.68-14.62,7.35,0,13.48,3.33,17.33,7.88l-4.03,3.76c-3.24-3.85-7.18-6.48-13.57-6.48s-11.99,3.68-11.99,9.81c0,5.17,2.54,8.67,9.63,11.64l6.57,2.8c8.4,3.59,15.06,8.58,15.06,17.51,0,9.54-7.27,16.63-19.7,16.63-8.58,0-15.76-4.46-19.26-8.67l4.11-3.76Z"/>
      <path d="M111.05,377.11c13.48,0,21.54,6.57,21.54,18.12s-8.05,18.12-21.54,18.12h-10.86v25.91h-5.43v-62.16h16.28ZM126.9,395.23c0-8.49-5.25-13.22-15.85-13.22h-10.86v26.35h10.86c10.59,0,15.85-4.64,15.85-13.13Z"/>
      <path d="M187.3,439.27h-5.69l-9.1-19h-30.47l-9.02,19h-5.69l29.94-62.86,30.03,62.86ZM170.05,415.1l-12.78-26.88-12.78,26.88h25.56Z"/>
      <path d="M219.69,376.41c7.53,0,14.36,2.36,19.7,6.74l-2.98,4.38c-4.38-3.68-10.07-5.95-16.72-5.95-14.97,0-26.18,11.56-26.18,26.61s11.21,26.61,26.18,26.61c6.65,0,12.34-2.28,16.81-5.95l2.89,4.38c-5.25,4.29-12.17,6.74-19.7,6.74-17.86,0-31.78-13.74-31.78-31.78s13.92-31.78,31.78-31.78Z"/>
      <path d="M286.48,377.11v5.17h-29.42v22.32h24.16v5.25h-24.16v24.25h29.42v5.17h-34.84v-62.16h34.84Z"/>
      <path d="M352.49,410.64l29.94-34.23v62.86h-5.43v-49.03l-24.51,28.19-24.51-28.19v49.03h-5.43v-62.86l29.94,34.23Z"/>
      <path d="M435.12,377.11v5.17h-29.42v22.32h24.16v5.25h-24.16v24.25h29.42v5.17h-34.84v-62.16h34.84ZM427.33,359.34l-9.54,12.69h-4.82l7.18-12.69h7.18Z"/>
      <path d="M466.11,377.11c19.79,0,33.71,13.04,33.71,31.08s-13.92,31.08-33.71,31.08h-17.25v-62.16h17.25ZM494.21,408.19c0-15.06-11.12-25.91-28.1-25.91h-11.82v51.83h11.82c16.98,0,28.1-10.86,28.1-25.91Z"/>
      <path d="M517.76,377.11v62.16h-5.43v-62.16h5.43Z"/>
      <path d="M587.53,439.27h-5.69l-9.1-19h-30.47l-9.02,19h-5.69l29.94-62.86,30.03,62.86ZM570.28,415.1l-12.78-26.88-12.78,26.88h25.56Z"/>
      <path d="M594.97,427.54c3.06,3.76,8.4,7.27,15.15,7.27,8.49,0,14.18-4.2,14.18-10.68,0-6.92-4.29-10.16-11.38-13.31l-6.57-2.8c-9.46-4.03-13.22-9.46-13.22-16.98,0-8.84,8.75-14.62,17.68-14.62,7.35,0,13.48,3.33,17.33,7.88l-4.03,3.76c-3.24-3.85-7.18-6.48-13.57-6.48s-11.99,3.68-11.99,9.81c0,5.17,2.54,8.67,9.63,11.64l6.57,2.8c8.4,3.59,15.06,8.58,15.06,17.51,0,9.54-7.27,16.63-19.7,16.63-8.58,0-15.76-4.46-19.26-8.67l4.11-3.76Z"/>
    </g>
  </g>
</svg>