<?xml version="1.0" encoding="UTF-8"?>
<svg xmlns="http://www.w3.org/2000/svg" viewBox="0 0 1340.6 441.73">
  <g id="Calque_1" data-name="Calque 1">
    <g>
      <path d="M136.67,159.83h37.43l7.36-15.65h66.42l7.36,15.65h37.27L214.59,0l-77.92,159.83ZM195.73,115.19l18.87-41.72,18.87,41.72h-37.73Z"/>
      <path d="M455.87,1.84h-35.59v94.33c0,19.17-11.81,31.14-29.14,31.14s-29.14-11.96-29.14-31.14V1.84h-35.59v93.87c0,39.73,26.84,65.96,64.73,65.96s64.73-26.23,64.73-65.96V1.84Z"/>
      <path d="M357.55,280.7h17.49l3.53-7.36h31.14l3.53,7.36h17.49l-36.51-75.16-36.66,75.16ZM385.31,259.68l8.9-19.63,8.74,19.63h-17.64Z"/>
      <polygon points="294.66 222.87 312.45 222.87 312.45 280.7 329.17 280.7 329.17 222.87 347.12 222.87 347.12 206.46 294.66 206.46 294.66 222.87"/>
      <polygon points="97.41 124.55 35.9 124.55 35.9 1.84 .31 1.84 .31 159.83 97.41 159.83 97.41 124.55"/>
      <path d="M689.17,144.18h66.42l7.21,15.65h37.43L722.3,0l-77.92,159.83h37.43l7.36-15.65ZM722.3,73.47l18.87,41.72h-37.73l18.87-41.72Z"/>
      <rect x="254.63" y="206.46" width="16.72" height="74.24"/>
      <path d="M38.2,221.64c7.98,0,14.73,4.29,18.41,10.43l12.73-10.43c-6.9-9.66-18.41-16.11-31.14-16.11C17.34,205.54.31,222.56.31,243.58s17.03,37.89,37.89,37.89c12.73,0,24.24-6.29,31.14-16.11l-12.73-10.28c-3.68,5.98-10.43,10.28-18.41,10.28-11.96,0-21.01-9.97-21.01-21.78s9.05-21.93,21.01-21.93Z"/>
      <path d="M85.29,280.7h17.64l3.37-7.36h31.14l3.53,7.36h17.49l-36.51-75.16-36.66,75.16ZM113.05,259.68l8.9-19.63,8.74,19.63h-17.64Z"/>
      <path d="M204.93,206.46h-24.39v74.24h16.72v-23.93h7.67c14.57,0,25.46-11.2,25.46-25.16s-10.89-25.16-25.46-25.16ZM204.78,241.28h-7.52v-19.17h7.52c5.37,0,9.36,4.45,9.36,9.51s-3.99,9.66-9.36,9.66Z"/>
      <path d="M1175.87,243.58c0-21.01-17.03-38.04-37.89-38.04s-38.04,17.03-38.04,38.04,17.03,37.89,38.04,37.89c9.05,0,17.33-3.07,23.93-8.59l10.58,8.59,9.51-11.66-10.58-8.44c2.91-5.37,4.45-11.5,4.45-17.79ZM1157.92,250.33l-10.74-8.74-9.66,11.5,11.35,9.2c-3.07,1.99-6.9,3.07-10.89,3.07-12.12,0-21.17-9.97-21.17-21.78s9.05-21.93,21.17-21.93,21.01,9.97,21.01,21.93c0,2.3-.31,4.6-1.07,6.75Z"/>
      <rect x="1056.53" y="206.46" width="16.72" height="74.24"/>
      <path d="M1006.83,206.46h-24.54v74.24h16.87v-23.93h7.67c14.57,0,25.46-11.2,25.46-25.16s-10.89-25.16-25.46-25.16ZM1006.68,241.28h-7.52v-19.17h7.52c5.37,0,9.36,4.45,9.36,9.51s-3.99,9.66-9.36,9.66Z"/>
      <polygon points="1179.24 1.84 1143.66 1.84 1143.66 84.36 1043.8 0 1043.8 159.83 1079.54 159.83 1079.54 77.31 1179.24 161.67 1179.24 1.84"/>
      <polygon points="1294.59 280.7 1340.6 280.7 1340.6 264.13 1311.46 264.13 1311.46 251.55 1334.47 251.55 1334.47 235.45 1311.46 235.45 1311.46 222.87 1340.6 222.87 1340.6 206.46 1294.59 206.46 1294.59 280.7"/>
      <polygon points="1340.6 36.97 1340.6 1.84 1242.74 1.84 1242.74 159.83 1340.6 159.83 1340.6 124.7 1278.33 124.7 1278.33 98.01 1327.26 98.01 1327.26 63.66 1278.33 63.66 1278.33 36.97 1340.6 36.97"/>
      <path d="M1247.8,250.79c0,8.9-5.52,14.57-13.65,14.57s-13.8-5.68-13.8-14.57v-44.33h-16.72v44.02c0,18.71,12.73,30.98,30.52,30.98s30.37-12.27,30.37-30.98v-44.02h-16.72v44.33Z"/>
      <polygon points="469.52 206.46 452.8 206.46 452.8 280.7 498.36 280.7 498.36 263.98 469.52 263.98 469.52 206.46"/>
      <polygon points="944.87 84.36 845.01 0 845.01 159.83 880.6 159.83 880.6 77.31 980.45 161.67 980.45 1.84 944.87 1.84 944.87 84.36"/>
      <path d="M667.7,205.54c-20.86,0-37.89,17.03-37.89,38.04s17.03,37.89,37.89,37.89,37.89-17.03,37.89-37.89-17.03-38.04-37.89-38.04ZM667.7,265.36c-11.96,0-21.17-9.97-21.17-21.78s9.2-21.93,21.17-21.93,21.17,9.97,21.17,21.93-9.2,21.78-21.17,21.78Z"/>
      <path d="M580.11,69.64l-7.98-4.75c-12.58-7.52-19.17-13.65-19.17-20.86,0-6.6,5.98-10.28,12.88-10.28s14.25,3.75,20.23,12.64l18.88-29.98c-9.05-9.82-23.77-16.11-40.49-16.11-26.84,0-47.4,17.33-47.4,45.25,0,21.17,10.89,36.35,31.14,48.47l8.44,5.06c11.5,6.9,16.41,11.66,16.41,18.56,0,6.29-4.75,10.89-14.26,10.89-11.5,0-21.17-7.82-28.38-20.86l-21.63,29.6c9.05,12.58,26.69,24.7,51.23,24.7,28.68,0,49.24-19.48,49.24-47.55,0-20.25-10.58-33.75-29.14-44.79Z"/>
      <polygon points="877.53 203.93 877.53 280.7 894.25 280.7 894.25 242.89 914.5 263.29 934.9 242.89 934.9 280.7 951.62 280.7 951.62 203.93 914.5 241.05 877.53 203.93"/>
      <polygon points="521.52 280.7 567.54 280.7 567.54 264.13 538.39 264.13 538.39 251.55 561.25 251.55 561.25 235.45 538.39 235.45 538.39 222.87 567.54 222.87 567.54 206.46 521.52 206.46 521.52 280.7"/>
      <polygon points="826.37 232.24 810.19 206.46 789.49 206.46 815.99 248.04 800.22 272.84 813.09 283.46 862.19 206.5 842.56 206.46 826.37 232.24"/>
      <polygon points="748.53 206.46 731.81 206.46 731.81 280.7 777.37 280.7 777.37 263.98 748.53 263.98 748.53 206.46"/>
    </g>
  </g>
  <g id="Calque_3" data-name="Calque 3">
    <path d="M30.78,411.58l30.78-35.19v64.62h-5.58v-50.4l-25.2,28.98-25.2-28.98v50.4H0v-64.62l30.78,35.19Z"/>
    <path d="M115.74,377.11v5.31h-30.24v22.95h24.84v5.4h-24.84v24.93h30.24v5.31h-35.82v-63.9h35.82Z"/>
    <path d="M147.6,377.11c20.34,0,34.65,13.41,34.65,31.95s-14.31,31.95-34.65,31.95h-17.73v-63.9h17.73ZM176.49,409.06c0-15.48-11.43-26.64-28.89-26.64h-12.15v53.28h12.15c17.46,0,28.89-11.16,28.89-26.64Z"/>
    <path d="M200.7,377.11v63.9h-5.58v-63.9h5.58Z"/>
    <path d="M272.42,441.01h-5.85l-9.36-19.53h-31.32l-9.27,19.53h-5.85l30.78-64.62,30.87,64.62ZM254.7,416.17l-13.14-27.63-13.14,27.63h26.28Z"/>
    <path d="M336.79,376.39c7.74,0,14.76,2.43,20.25,6.93l-3.06,4.5c-4.5-3.78-10.35-6.12-17.19-6.12-15.39,0-26.91,11.88-26.91,27.36s11.52,27.36,26.91,27.36c6.84,0,12.69-2.34,17.28-6.12l2.97,4.5c-5.4,4.41-12.51,6.93-20.25,6.93-18.36,0-32.67-14.13-32.67-32.67s14.31-32.67,32.67-32.67Z"/>
    <path d="M394.84,376.39c18.36,0,32.67,14.13,32.67,32.67s-14.31,32.67-32.67,32.67-32.67-14.13-32.67-32.67,14.31-32.67,32.67-32.67ZM394.84,381.7c-15.39,0-26.91,11.88-26.91,27.36s11.52,27.36,26.91,27.36,26.91-11.88,26.91-27.36-11.52-27.36-26.91-27.36Z"/>
    <path d="M445.96,412.12v28.89h-5.58v-63.9h16.92c13.14,0,20.79,6.57,20.79,17.55,0,9.81-6.39,16.29-17.37,17.37l24.21,28.98h-6.93l-23.76-28.89h-8.28ZM472.24,394.66c0-7.92-4.95-12.33-15.12-12.33h-11.16v24.66h11.16c10.17,0,15.12-4.5,15.12-12.33Z"/>
    <path d="M502.48,441.01h-5.58v-64.62l47.61,51.57v-50.85h5.58v64.62l-47.61-51.57v50.85Z"/>
    <path d="M604.27,377.11v5.31h-30.24v22.95h24.84v5.4h-24.84v24.93h30.24v5.31h-35.82v-63.9h35.82Z"/>
    <path d="M623.98,412.12v28.89h-5.58v-63.9h16.92c13.14,0,20.79,6.57,20.79,17.55,0,9.81-6.39,16.29-17.37,17.37l24.21,28.98h-6.93l-23.76-28.89h-8.28ZM650.26,394.66c0-7.92-4.95-12.33-15.12-12.33h-11.16v24.66h11.16c10.17,0,15.12-4.5,15.12-12.33Z"/>
  </g>
</svg>