<svg id="Calque_1" data-name="Calque 1" xmlns="http://www.w3.org/2000/svg" viewBox="0 0 1417.32 1689.45"><defs><style>.cls-1{fill:#fff;}</style></defs><title>LT</title><path class="cls-1" d="M370,1327.54h23.75l4.67-9.93h42.14l4.67,9.93h23.65l-49.44-101.41Zm37.47-28.32,12-26.47,12,26.47Z"/><path class="cls-1" d="M572.51,1227.3H549.93v59.85c0,12.17-7.49,19.76-18.49,19.76S513,1299.32,513,1287.15V1227.3H490.37v59.56c0,25.2,17,41.85,41.07,41.85s41.07-16.65,41.07-41.85Z"/><path class="cls-1" d="M510.13,1404.23h11.09l2.24-4.67h19.76l2.23,4.67h11.1l-23.16-47.69Zm17.61-13.33,5.65-12.46,5.54,12.46Z"/><polygon class="cls-1" points="470.22 1367.54 481.51 1367.54 481.51 1404.23 492.12 1404.23 492.12 1367.54 503.51 1367.54 503.51 1357.13 470.22 1357.13 470.22 1367.54"/><polygon class="cls-1" points="345.07 1305.15 306.04 1305.15 306.04 1227.3 283.46 1227.3 283.46 1327.54 345.07 1327.54 345.07 1305.15"/><path class="cls-1" d="M720.53,1317.61h42.14l4.58,9.93H791l-49.44-101.41-49.44,101.41h23.74Zm21-44.86,12,26.47H729.59Z"/><rect class="cls-1" x="444.82" y="1357.12" width="10.61" height="47.1"/><path class="cls-1" d="M307.5,1366.76a13.56,13.56,0,0,1,11.68,6.62l8.08-6.62a24.42,24.42,0,0,0-19.76-10.22,24.09,24.09,0,1,0,19.76,38l-8.08-6.52a13.71,13.71,0,0,1-11.68,6.52,13.52,13.52,0,0,1-13.33-13.82C294.17,1373.09,299.91,1366.76,307.5,1366.76Z"/><path class="cls-1" d="M337.38,1404.23h11.19l2.14-4.67h19.76l2.24,4.67H383.8l-23.16-47.69ZM355,1390.9l5.64-12.46,5.55,12.46Z"/><path class="cls-1" d="M413.29,1357.12H397.82v47.11h10.61v-15.18h4.86a16,16,0,1,0,0-31.93Zm-.1,22.1h-4.76v-12.17h4.76a6,6,0,0,1,5.94,6A6.06,6.06,0,0,1,413.19,1379.22Z"/><path class="cls-1" d="M1029.34,1380.68a24.09,24.09,0,1,0-24,24,23.37,23.37,0,0,0,15.18-5.45l6.71,5.45,6-7.39-6.72-5.35A23.69,23.69,0,0,0,1029.34,1380.68ZM1018,1385l-6.81-5.55-6.14,7.3,7.21,5.84a12.79,12.79,0,0,1-6.91,2,13.54,13.54,0,0,1-13.43-13.82c0-7.59,5.74-13.92,13.43-13.92s13.33,6.33,13.33,13.92A12.62,12.62,0,0,1,1018,1385Z"/><rect class="cls-1" x="953.62" y="1357.12" width="10.61" height="47.1"/><path class="cls-1" d="M922.09,1357.12H906.52v47.11h10.7v-15.18h4.87a16,16,0,1,0,0-31.93Zm-.1,22.1h-4.77v-12.17H922a6,6,0,0,1,5.94,6A6.06,6.06,0,0,1,922,1379.22Z"/><polygon class="cls-1" points="1031.48 1227.3 1008.9 1227.3 1008.9 1279.66 945.54 1226.13 945.54 1327.54 968.22 1327.54 968.22 1275.18 1031.48 1328.71 1031.48 1227.3"/><polygon class="cls-1" points="1104.66 1404.23 1133.86 1404.23 1133.86 1393.72 1115.37 1393.72 1115.37 1385.74 1129.96 1385.74 1129.96 1375.52 1115.37 1375.52 1115.37 1367.54 1133.86 1367.54 1133.86 1357.13 1104.66 1357.13 1104.66 1404.23"/><polygon class="cls-1" points="1133.86 1249.59 1133.86 1227.3 1071.77 1227.3 1071.77 1327.54 1133.86 1327.54 1133.86 1305.25 1094.35 1305.25 1094.35 1288.32 1125.39 1288.32 1125.39 1266.52 1094.35 1266.52 1094.35 1249.59 1133.86 1249.59"/><path class="cls-1" d="M1075,1385.25c0,5.65-3.5,9.25-8.66,9.25s-8.76-3.6-8.76-9.25v-28.13H1047v27.94c0,11.87,8.08,19.65,19.37,19.65s19.27-7.78,19.27-19.65v-27.94H1075Z"/><polygon class="cls-1" points="581.17 1357.13 570.56 1357.13 570.56 1404.23 599.47 1404.23 599.47 1393.62 581.17 1393.62 581.17 1357.13"/><polygon class="cls-1" points="882.77 1279.66 819.41 1226.13 819.41 1327.54 841.99 1327.54 841.99 1275.18 905.35 1328.71 905.35 1227.3 882.77 1227.3 882.77 1279.66"/><path class="cls-1" d="M706.91,1356.54a24.09,24.09,0,1,0,24,24.14A24.11,24.11,0,0,0,706.91,1356.54Zm0,38a13.88,13.88,0,1,1,13.43-13.82A13.61,13.61,0,0,1,706.91,1394.5Z"/><path class="cls-1" d="M651.34,1270.31l-5.06-3c-8-4.77-12.17-8.66-12.17-13.24,0-4.18,3.8-6.52,8.18-6.52s9,2.38,12.84,8l12-19c-5.75-6.22-15.09-10.22-25.7-10.22-17,0-30.07,11-30.07,28.71,0,13.43,6.91,23.07,19.76,30.76l5.35,3.21c7.3,4.38,10.41,7.4,10.41,11.78,0,4-3,6.91-9.05,6.91-7.3,0-13.43-5-18-13.24l-13.73,18.78c5.75,8,16.94,15.67,32.51,15.67,18.2,0,31.24-12.36,31.24-30.17C669.83,1285.89,663.12,1277.32,651.34,1270.31Z"/><polygon class="cls-1" points="840.04 1355.52 840.04 1404.23 850.65 1404.23 850.65 1380.24 863.5 1393.19 876.44 1380.24 876.44 1404.23 887.05 1404.23 887.05 1355.52 863.5 1379.07 840.04 1355.52"/><polygon class="cls-1" points="614.16 1404.23 643.36 1404.23 643.36 1393.72 624.87 1393.72 624.87 1385.74 639.37 1385.74 639.37 1375.52 624.87 1375.52 624.87 1367.54 643.36 1367.54 643.36 1357.13 614.16 1357.13 614.16 1404.23"/><polygon class="cls-1" points="807.59 1373.48 797.32 1357.13 784.18 1357.13 801 1383.51 790.99 1399.24 799.16 1405.98 830.31 1357.15 817.86 1357.13 807.59 1373.48"/><polygon class="cls-1" points="758.2 1357.13 747.59 1357.13 747.59 1404.23 776.49 1404.23 776.49 1393.62 758.2 1393.62 758.2 1357.13"/><path class="cls-1" d="M283.46,283.46v850.4h850.4V283.46ZM1122.35,295V599.66l-96-198.51-46.23,81.6-19.76-96.43L930.6,531.39l-74.75-63.65L706.26,619H663.13l-47,95.68-52.36-48.25H501.38L372.88,532.11,295,629.52V295ZM954.56,1122.35H924.14V942.11l36.18-36.51,36.19,36.51V1080.4h-42ZM336.92,1044.2H325.41v0a36.24,36.24,0,0,1-30.43,35.7v-72.25A47.78,47.78,0,0,0,331.16,983a47.69,47.69,0,0,0,83.89,0,47.69,47.69,0,0,0,83.89,0,47.69,47.69,0,0,0,83.89,0,47.69,47.69,0,0,0,83.89,0,47.69,47.69,0,0,0,83.89,0,47.68,47.68,0,0,0,83.88,0,47.81,47.81,0,0,0,36.25,24.64v72.26a36.24,36.24,0,0,1-30.49-35.73H828.74a36.19,36.19,0,0,1-72.38,0H744.85a36.19,36.19,0,0,1-72.38,0H661a36.19,36.19,0,1,1-72.37,0H577.07a36.19,36.19,0,1,1-72.37,0H493.19a36.19,36.19,0,0,1-72.38,0H409.3a36.19,36.19,0,0,1-72.38,0v0ZM1009.14,682H991.81l-31.5-63-31.49,63H911.49l48.82-238.35ZM903.88,661.81,890.46,608.1l-19.72,79v57.78H648.85l-23.89-22,45.34-92.31h40.77L856.52,483.44,928,544.26ZM870.74,996.06a36.24,36.24,0,0,1-30.49-35.73H828.74a36.24,36.24,0,0,1-30.43,35.72V876.57a47.7,47.7,0,1,0-95.4,0V996.05a36.24,36.24,0,0,1-30.44-35.72H661a36.23,36.23,0,0,1-30.43,35.72V876.57h0a47.7,47.7,0,1,0-95.4,0V996.05a36.23,36.23,0,0,1-30.43-35.72H493.19a36.24,36.24,0,0,1-30.44,35.72V876.57a47.7,47.7,0,1,0-95.4,0V996.05a36.24,36.24,0,0,1-30.43-35.7v0H325.41v0A36.24,36.24,0,0,1,295,996.05V798.31H870.74ZM714.42,876.57a36.19,36.19,0,1,1,72.37,0V996.05a36.24,36.24,0,0,1-30.43-35.72H744.85a36.23,36.23,0,0,1-30.43,35.72Zm-167.78,0a36.19,36.19,0,1,1,72.38,0h0V996.05a36.23,36.23,0,0,1-30.43-35.72H577.07a36.23,36.23,0,0,1-30.43,35.72Zm-167.77,0a36.19,36.19,0,1,1,72.37,0V996.05a36.23,36.23,0,0,1-30.43-35.72H409.3a36.24,36.24,0,0,1-30.43,35.72Zm491.87-89.78H295V756.36H870.74ZM631.86,744.85H295V648l78.68-98.38L496.46,678h62.81Zm250.39-56.36,8.21-32.88,9.48,37.93h36l24.38-48.8,24.39,48.8h36l9.49-38,8.28,33v350H1008V937.37l-47.72-48.12-47.68,48.12v185H882.25ZM1008,1050h114.32v30.43H1008Zm41.94-11.51V1008h72.38v30.43Zm41.94-42V966.08h30.44v30.43Zm-11.51-41.94v41.94H1050V687.07l-19.82-78.9-13.4,53.64L983.58,499.9l41.92-74,96.85,200.17V954.57ZM295,1091.54a47.78,47.78,0,0,0,36.18-24.64,47.69,47.69,0,0,0,83.89,0,47.69,47.69,0,0,0,83.89,0,47.69,47.69,0,0,0,83.89,0,47.69,47.69,0,0,0,83.89,0,47.69,47.69,0,0,0,83.89,0,47.68,47.68,0,0,0,83.88,0,47.81,47.81,0,0,0,36.25,24.64v30.81H295Zm671.09,30.81v-30.44h156.28v30.44Z"/><rect class="cls-1" x="912.62" y="771.58" width="11.51" height="62.16"/><rect class="cls-1" x="996.5" y="771.58" width="11.51" height="62.16"/><path class="cls-1" d="M414.56,483.18c2,0,4-.09,6-.25,0-.44,0-.88-.08-1.31a69,69,0,0,0,137.75,1.3l-.31,0q3.11.28,6.28.29t6-.26c0-.37,0-.74-.07-1.11a69,69,0,0,0,137.74,1.12l-.41-.05c2.1.19,4.23.3,6.38.3A69.05,69.05,0,1,0,645,408.63l.5.05q-3.19-.3-6.47-.3-3,0-6,.25c0,.46.06.93.08,1.4a69,69,0,0,0-137.75-1.4l.5.05q-3.19-.3-6.47-.3c-2,0-4,.08-6,.25,0,.51.06,1,.09,1.53a69,69,0,1,0-68.93,73Zm5.76-5.76c0,1.09,0,2.16.08,3.24C420.35,479.58,420.32,478.51,420.32,477.42Zm11.57,2.7c0,.14,0,.29,0,.43C431.91,480.41,431.9,480.26,431.89,480.12Zm138-2.7c0,1.07,0,2.13.08,3.18C570,479.55,569.93,478.49,569.93,477.42Zm11.58,2.6c0,.21,0,.42,0,.63C581.52,480.44,581.52,480.23,581.51,480ZM713.79,356.59a57.54,57.54,0,1,1,0,115.08,59.74,59.74,0,0,1-6-.32,69.1,69.1,0,0,0-52-60.92c.2.05.41.09.61.15A57.55,57.55,0,0,1,713.79,356.59Zm-6.67,114.68c-.65-.07-1.3-.15-1.94-.25C705.82,471.12,706.47,471.2,707.12,471.27Zm-3-.42c-.59-.1-1.17-.21-1.76-.33C702.93,470.64,703.51,470.75,704.1,470.85Zm-2.84-.56c-.6-.13-1.19-.28-1.78-.43C700.07,470,700.66,470.16,701.26,470.29Zm-2.76-.68c-.68-.19-1.35-.39-2-.6C697.15,469.22,697.82,469.42,698.5,469.61Zm-2.62-.78a57.6,57.6,0,0,1-39-46.11A57.6,57.6,0,0,1,695.88,468.83ZM648.55,409c-.76-.1-1.52-.19-2.29-.27C647,408.85,647.79,408.94,648.55,409Zm6.15,1.15c-.66-.16-1.33-.31-2-.44C653.37,409.88,654,410,654.7,410.19Zm-3.07-.65-2.07-.35Zm5,13.12c-.82-.27-1.64-.51-2.48-.74C655,422.15,655.85,422.39,656.67,422.66Zm-3.18-.92c-.69-.18-1.38-.35-2.08-.5C652.11,421.39,652.8,421.56,653.49,421.74Zm-2.93-.68c-.67-.14-1.34-.26-2-.37C649.22,420.8,649.89,420.92,650.56,421.06Zm-2.89-.52c-.71-.1-1.44-.2-2.16-.28C646.23,420.34,647,420.44,647.67,420.54Zm-14.45-6.42c0,2.05-.08,4.07-.25,6.08a56.75,56.75,0,0,1,6-.32,59.9,59.9,0,0,1,6,.32,69.08,69.08,0,0,0,51.91,60.89c-.17,0-.33-.07-.49-.12a57.54,57.54,0,0,1-114.86,0,69.07,69.07,0,0,0,51.66-66.85c0-1.09,0-2.18-.08-3.27C633.19,411.94,633.22,413,633.22,414.12Zm73.06,68.64q-1-.11-2-.24Q705.29,482.66,706.28,482.76Zm-3.2-.42-1.85-.31Zm-3.11-.56c-.58-.11-1.16-.24-1.74-.38C698.81,481.54,699.39,481.67,700,481.78Zm-118.48-6.65,0-.66Zm.13-2.28c0-.26,0-.53.08-.79C581.67,472.32,581.64,472.59,581.62,472.85Zm.22-2.23c0-.31.08-.62.13-.93C581.92,470,581.88,470.31,581.84,470.62Zm.25-1.79a57.58,57.58,0,0,1,39-46.1A57.62,57.62,0,0,1,582.09,468.83Zm39.1-46.94c0-.33.09-.66.13-1C621.28,421.23,621.23,421.56,621.19,421.89Zm.26-2.28.09-.94Zm.18-2.42c0-.26,0-.52,0-.78C621.66,416.67,621.64,416.93,621.63,417.19Zm0-5.62,0-.72Zm-57.48-55a57.54,57.54,0,0,1,57.43,54,69.12,69.12,0,0,0-51.41,60.78,57.68,57.68,0,0,1-12,0,69.08,69.08,0,0,0-52-60.91l.6.14A57.54,57.54,0,0,1,564.17,356.59Zm-6.66,114.68c-.66-.07-1.31-.15-2-.25C556.2,471.12,556.85,471.2,557.51,471.27Zm-3-.42c-.61-.1-1.21-.21-1.81-.34C553.3,470.64,553.9,470.75,554.51,470.85Zm-2.85-.55-1.83-.45Zm-2.76-.68c-.72-.2-1.44-.42-2.15-.64C547.46,469.2,548.18,469.42,548.9,469.62Zm-2.63-.79a57.61,57.61,0,0,1-39-46.11A57.61,57.61,0,0,1,546.27,468.83ZM499,409l-2.32-.28Zm6.1,1.14c-.64-.15-1.29-.3-1.95-.43Zm-3-.64c-.69-.13-1.37-.24-2.06-.35C500.64,409.3,501.32,409.41,502,409.54Zm5,13.11c-.8-.26-1.61-.5-2.42-.72C505.41,422.15,506.22,422.39,507,422.65Zm-3.19-.92c-.66-.17-1.34-.34-2-.49C502.49,421.39,503.17,421.56,503.83,421.73Zm-2.91-.67c-.65-.14-1.31-.26-2-.37C499.61,420.8,500.27,420.92,500.92,421.06Zm-2.87-.52c-.71-.1-1.44-.2-2.16-.28C496.61,420.34,497.34,420.44,498.05,420.54Zm-2.66-.34a69.09,69.09,0,0,0,51.9,60.89c-.16,0-.33-.07-.49-.12a57.54,57.54,0,0,1-114.86,0,69.09,69.09,0,0,0,51.41-60.78h0a57.27,57.27,0,0,1,6-.32A59.9,59.9,0,0,1,495.39,420.2Zm61.09,62.54c-.58-.06-1.17-.13-1.75-.21C555.31,482.61,555.9,482.68,556.48,482.74Zm-3.07-.41c-.59-.09-1.19-.19-1.78-.3C552.22,482.14,552.82,482.24,553.41,482.33Zm-3.06-.55c-.58-.11-1.16-.24-1.74-.38C549.19,481.54,549.77,481.67,550.35,481.78Zm-118.48-6.65c0-.21,0-.41,0-.62C431.9,474.72,431.88,474.92,431.87,475.13Zm.14-2.3.06-.64Zm.23-2.29c0-.2.05-.39.07-.59C432.29,470.15,432.26,470.34,432.24,470.54Zm.23-1.71a57.6,57.6,0,0,1,39-46.1A57.63,57.63,0,0,1,432.47,468.83Zm51.14-54.71c0-1.11,0-2.21-.08-3.31C483.58,411.91,483.61,413,483.61,414.12Zm-.13,4c0-.34,0-.69.07-1C483.53,417.47,483.5,417.82,483.48,418.16Zm-11.9,3.67c0-.31.09-.62.12-.92C471.67,421.21,471.63,421.52,471.58,421.83Zm.25-2.19c0-.33.07-.66.09-1C471.9,419,471.86,419.31,471.83,419.64Zm.18-2.38c0-.29,0-.57.05-.86C472.05,416.69,472,417,472,417.26Zm0-5.77,0-.57Zm-57.48-54.9a57.55,57.55,0,0,1,57.43,54,69.1,69.1,0,0,0-51.41,60.8v0a59.91,59.91,0,0,1-6,.31,57.54,57.54,0,1,1,0-115.08Zm5.82,117.81c0-.24,0-.48.05-.72C420.41,473.92,420.39,474.16,420.38,474.4Z"/></svg>