<?xml version="1.0" encoding="UTF-8"?>
<svg id="Switzerland_x5F_Member_x5F_Logo_x5F_Flag_x5F_Red" xmlns="http://www.w3.org/2000/svg" viewBox="0 0 2157.1 572.12">
  <defs>
    <style>
      .cls-1 {
        fill: #ff4773;
      }

      .cls-1, .cls-2, .cls-3, .cls-4, .cls-5, .cls-6 {
        stroke-width: 0px;
      }

      .cls-2 {
        fill: #db001c;
      }

      .cls-3 {
        fill: #b50024;
      }

      .cls-4 {
        fill: #ff0a00;
      }

      .cls-5 {
        fill: #85052e;
      }

      .cls-6 {
        fill: #fff;
      }
    </style>
  </defs>
  <g>
    <g>
      <g>
        <rect class="cls-1" x="613.7" y="4.09" width="209.83" height="39.34"/>
        <rect class="cls-5" x="613.7" y="174.58" width="209.83" height="39.34"/>
        <rect class="cls-2" x="613.7" y="89.34" width="209.83" height="39.34"/>
        <rect class="cls-3" x="613.7" y="128.68" width="209.83" height="45.9"/>
        <rect class="cls-4" x="613.7" y="43.44" width="209.83" height="45.9"/>
      </g>
      <polygon class="cls-6" points="784.19 89.34 738.29 89.34 738.29 43.44 698.95 43.44 698.95 89.34 653.05 89.34 653.05 128.68 698.95 128.68 698.95 174.58 738.29 174.58 738.29 128.68 784.19 128.68 784.19 89.34"/>
    </g>
    <g>
      <g>
        <path class="cls-6" d="M850.59,256.97l107.79-128.28h-100.41v-39.34h161.06v29.92l-113.11,135.66h117.21v39.34h-172.54v-37.29Z"/>
        <path class="cls-6" d="M1032.14,191.8c0-65.16,41.39-108.2,106.15-108.2,72.13,0,109.43,58.61,89.34,125.82h-145.08c5.33,31.56,24.18,49.59,55.33,49.59,21.31,0,35.25-8.2,43.85-21.31h52.46c-13.93,36.07-45.9,62.3-97.13,62.3-63.93,0-104.92-43.03-104.92-108.2ZM1183.37,174.59c4.1-31.15-12.7-51.64-45.9-51.64s-50.41,18.44-54.92,51.64h100.82Z"/>
        <path class="cls-6" d="M1347.29,125c-23.36,0-37.7,27.46-37.7,68.85v100.41h-46.72V89.34h46.72v34.84c11.07-25.41,30.74-40.57,56.15-40.57,54.92,0,62.29,56.56,51.64,90.98h-49.18c9.02-25.41,3.69-49.59-20.9-49.59Z"/>
        <path class="cls-6" d="M1445.65,7.38h46.72v286.88h-46.72V7.38Z"/>
        <path class="cls-6" d="M1664.49,258.61c-15.16,26.23-40.16,41.39-73.77,41.39-43.44,0-70.49-27.87-70.49-63.52,0-41.39,36.07-67.62,93.85-67.62,15.98,0,32.38,2.05,46.72,5.33-.82-29.1-12.29-50-43.85-50-24.59,0-35.25,12.29-37.7,25h-47.95c.41-37.3,32.79-65.57,86.07-65.57,59.84,0,90.16,37.29,90.16,94.26v116.39h-43.03v-35.66ZM1600.15,262.7c31.15,0,56.15-20.49,63.11-52.87-13.52-4.51-30.33-6.97-45.49-6.97-33.61,0-50,13.52-50,32.38,0,16.39,12.29,27.46,32.38,27.46Z"/>
        <path class="cls-6" d="M1742.36,89.34h46.72v37.7c13.52-27.05,38.53-43.44,69.67-43.44,65.98,0,65.98,65.16,65.98,95.9v114.75h-46.72v-113.52c0-23.36,0-56.56-36.07-56.56-31.15,0-52.87,27.87-52.87,69.67v100.41h-46.72V89.34Z"/>
        <path class="cls-6" d="M1948.09,191.8c0-64.75,38.11-108.2,92.62-108.2,29.92,0,54.1,13.11,69.67,36.07V7.38h46.72v286.88h-46.72v-30.33c-15.57,22.95-39.75,36.07-69.67,36.07-54.1,0-92.62-43.03-92.62-108.2ZM2112.43,191.8c0-40.57-22.95-67.21-57.38-67.21s-57.79,26.64-57.79,67.21,22.95,67.21,57.79,67.21,57.38-26.64,57.38-67.21Z"/>
      </g>
      <g>
        <path class="cls-6" d="M.2,220.9h45.08c-2.87,25.41,15.98,41.39,47.95,41.39,25,0,41.8-9.84,41.8-24.59,0-40.98-131.97-11.48-131.97-88.11,0-40.98,38.11-65.98,87.71-65.98,54.92,0,94.67,30.74,86.06,77.05h-45.49c5.74-23.36-12.7-39.34-40.98-39.34-23.77,0-39.34,10.66-39.34,25.41,0,41.39,132.38,9.84,132.38,87.7,0,41.39-37.29,65.57-90.57,65.57-57.79,0-95.9-29.51-92.62-79.1Z"/>
        <path class="cls-6" d="M185.85,89.34h49.59l43.03,156.97,43.03-156.97h49.59l41.8,154.92,44.26-154.92h48.77l-63.93,204.92h-54.51l-41.8-143.85-40.98,143.85h-54.92l-63.93-204.92Z"/>
        <path class="cls-6" d="M521.49,29.92c0-16.8,13.11-29.92,29.92-29.92s29.92,13.11,29.92,29.92-13.11,29.92-29.92,29.92-29.92-13.11-29.92-29.92ZM527.64,89.34h46.72v204.92h-46.72V89.34Z"/>
      </g>
    </g>
  </g>
  <g>
    <path class="cls-6" d="M2.95,376.46h55.63l48.5,153.73,47.96-153.73h55.36v191.82h-33.16v-162.78l-53.16,162.78h-34.8l-53.16-160.86v160.86H2.95v-191.82Z"/>
    <path class="cls-6" d="M230.91,499.77c0-43.57,27.68-72.35,70.98-72.35,48.23,0,73.44,39.19,60.01,84.13h-97.28c3.56,21.1,16.17,33.16,36.99,33.16,14.25,0,23.57-5.48,29.32-14.25h35.08c-9.32,24.12-30.69,41.65-64.95,41.65-42.75,0-70.15-28.77-70.15-72.35ZM332.03,488.26c2.74-20.83-8.5-34.53-30.69-34.53s-33.71,12.33-36.72,34.53h67.41Z"/>
    <path class="cls-6" d="M386.24,431.26h31.24v24.39c7.12-16.17,22.47-28.23,43.57-28.23,20,0,34.53,11.24,40.28,29.05,7.95-18.09,24.12-29.05,44.67-29.05,28.23,0,43.02,20.28,43.02,53.71v87.14h-31.24v-83.85c0-17.54-7.4-29.32-22.2-29.32-18.91,0-32.06,18.09-32.06,46.04v67.14h-31.24v-83.85c0-17.81-7.4-29.87-22.47-29.87-18.36,0-32.34,18.36-32.34,46.86v66.86h-31.24v-137.02Z"/>
    <path class="cls-6" d="M647.28,547.18v21.1h-31.24v-191.82h31.24v76.18c10.14-15.89,26.31-25.21,47.13-25.21,36.45,0,62.21,29.05,62.21,72.35s-26.03,72.35-62.48,72.35c-20.55,0-36.72-9.32-46.86-24.94ZM724.01,499.77c0-27.4-15.35-44.94-38.36-44.94s-38.64,17.81-38.64,44.94,15.35,44.94,38.36,44.94,38.64-17.81,38.64-44.94Z"/>
    <path class="cls-6" d="M771.95,499.77c0-43.57,27.68-72.35,70.98-72.35,48.23,0,73.44,39.19,60.01,84.13h-97.28c3.56,21.1,16.17,33.16,36.99,33.16,14.25,0,23.57-5.48,29.32-14.25h35.08c-9.32,24.12-30.69,41.65-64.95,41.65-42.75,0-70.15-28.77-70.15-72.35ZM873.06,488.26c2.74-20.83-8.5-34.53-30.69-34.53s-33.71,12.33-36.72,34.53h67.41Z"/>
    <path class="cls-6" d="M983.73,455.11c-15.62,0-25.21,18.36-25.21,46.04v67.14h-31.24v-137.02h31.24v23.29c7.4-16.99,20.55-27.13,37.54-27.13,36.72,0,41.65,37.82,34.53,60.84h-32.88c6.03-16.99,2.47-33.16-13.98-33.16Z"/>
  </g>
</svg>