<?xml version="1.0" encoding="UTF-8"?>
<svg id="Calque_1" data-name="Calque 1" xmlns="http://www.w3.org/2000/svg" viewBox="0 0 558.52 182.11">
  <defs>
    <style>
      .cls-1 {
      fill: #e30613;
      }

      .cls-1, .cls-2 {
      stroke-width: 0px;
      }

      .cls-2 {
      fill: #fff;
      }
    </style>
  </defs>
  <g>
    <path class="cls-2" d="M401.22,68.87c-1.05,4.7-2.94,8.75-5.63,12.13-2.68,3.38-6.33,6.02-10.9,7.87-4.57,1.89-10.37,2.81-17.4,2.81h-9.8V17.62c3.69-.31,7.25-.48,10.72-.48,6.77,0,12.39.92,16.88,2.81,4.48,1.89,8,4.44,10.64,7.69,2.59,3.25,4.48,7.08,5.54,11.47,1.05,4.4,1.63,9.1,1.63,14.11-.04,5.71-.57,10.94-1.67,15.65M424.87,32.57c-1.93-6.42-5.27-12.04-9.98-16.83-4.7-4.83-10.99-8.66-18.85-11.47-7.87-2.86-17.71-4.26-29.62-4.26-3.91,0-8.61.13-14.02.31-5.41.22-11.91.75-19.56,1.58v106.62h38.02c9.76,0,18.24-1.49,25.45-4.44s13.1-6.94,17.76-11.95c4.66-5.05,8.09-10.9,10.37-17.67,2.24-6.77,3.38-13.93,3.38-21.54,0-7.12-.97-13.93-2.94-20.35M304.09,2.64c-1.54-.92-3.25-1.54-5.1-1.85-1.85-.31-3.65-.48-5.45-.48-.84,0-2.07.09-3.65.22-1.63.18-3.25.35-4.92.57v66.8c0,7.6-1.58,13.54-4.83,17.76-3.21,4.22-8.88,6.33-16.96,6.33-4.66,0-8.39-.62-11.25-1.85s-5.1-2.94-6.68-5.14c-1.58-2.2-2.68-4.83-3.21-7.96-.53-3.12-.79-6.59-.79-10.42V12.83c0-2.68-.53-4.83-1.49-6.42-1.01-1.63-2.29-2.86-3.82-3.78s-3.25-1.54-5.1-1.85c-1.85-.31-3.65-.48-5.45-.48-.84,0-2.07.09-3.65.22-1.63.18-3.25.35-4.92.57v64.08c0,2.24.04,4.4.18,6.42.13,2.02.31,4,.53,5.93.7,5.36,2.02,10.11,3.91,14.2,1.89,4.13,4.61,7.6,8.22,10.42,3.56,2.86,8.04,5.01,13.4,6.5,5.36,1.49,11.91,2.24,19.6,2.24s14.24-.88,19.82-2.55c5.58-1.71,10.24-4.04,14.02-6.99,3.74-2.94,6.59-6.42,8.57-10.46,1.98-4,3.16-8.26,3.65-12.75.22-2.24.4-4.44.53-6.59s.18-4.26.18-6.42V12.83c0-2.68-.53-4.83-1.54-6.42-.97-1.63-2.24-2.9-3.78-3.78M166.79,4.92c-1.36-1.27-2.81-2.29-4.35-2.94-1.54-.7-3.12-1.14-4.75-1.36-1.63-.22-3.08-.31-4.4-.31-2.99,0-5.76.22-8.31.75-2.55.48-4.57.97-5.98,1.54l-41.4,106.18h24.26l9.05-26.11h32.26l-2.42-8c-.7-2.46-1.76-4.44-3.12-5.85s-2.9-2.51-4.53-3.25c-1.63-.79-3.34-1.27-5.05-1.49-1.76-.22-3.34-.35-4.79-.35h-5.76l15.03-43.29,30.55,88.34h25.36L170.04,10.33c-.79-2.33-1.89-4.09-3.25-5.41M95.86.26c-4.53,0-8.09.97-10.64,2.9s-4.48,4.75-5.8,8.53l-24.96,73.57L30.02,12.17c-1.32-3.87-3.3-6.81-5.98-8.83S17.76.31,13.23.31c-2.72,0-5.32.18-7.78.48C3.03,1.1,1.19,1.49,0,1.93l40.13,106.8h27.12L107.94,1.93c-4.61-1.1-8.66-1.67-12.09-1.67"/>
    <rect class="cls-1" x="451.11" y="1.32" width="107.42" height="107.42"/>
    <polygon class="cls-2" points="540.59 44.26 515.54 44.26 515.54 19.21 494.05 19.21 494.05 44.26 469 44.26 469 65.75 494.05 65.75 494.05 90.8 515.54 90.8 515.54 65.75 540.59 65.75 540.59 44.26"/>
  </g>
  <g>
    <path class="cls-2" d="M103.28,180.01c2.61-.14,3.42-.51,3.42-1.46,0-.64-.51-1.12-2.57-1.39l1.46-2.91c-4.87-.71-8.7-4.47-8.7-11.17,0-7.34,4.94-11.57,10.49-11.57,2.88,0,5.18,1.29,6.7,2.88l-2.77,3.18c-1.08-1.02-2.23-1.52-3.79-1.52-2.91,0-5.25,2.57-5.25,6.84s2.06,6.94,5.14,6.94c1.79,0,3.18-.71,4.23-1.83l2.74,3.11c-1.59,1.83-3.55,2.84-5.75,3.15l-.78,1.76c1.73.37,2.61,1.12,2.61,2.54,0,2.33-2.5,3.38-6.8,3.55l-.37-2.1Z"/>
    <path class="cls-2" d="M128.46,151.93h6.29l6.87,22.03h-5.55l-1.29-5.08h-6.53l-1.29,5.08h-5.38l6.87-22.03ZM129.28,164.82h4.5l-.47-1.89c-.58-2.17-1.15-4.77-1.73-7.07h-.14c-.54,2.3-1.12,4.91-1.69,7.07l-.47,1.89Z"/>
    <path class="cls-2" d="M163.18,163.09c0-7.34,4.94-11.57,10.49-11.57,2.88,0,5.18,1.29,6.7,2.88l-2.77,3.18c-1.08-1.02-2.23-1.52-3.79-1.52-2.91,0-5.25,2.57-5.25,6.84s2.06,6.94,5.14,6.94c1.79,0,3.18-.71,4.23-1.83l2.74,3.11c-1.93,2.2-4.37,3.25-7.14,3.25-5.62,0-10.35-3.82-10.35-11.27Z"/>
    <path class="cls-2" d="M188.4,162.86c0-7.24,4.09-11.34,10.08-11.34s10.08,4.13,10.08,11.34-4.09,11.51-10.08,11.51-10.08-4.3-10.08-11.51ZM203.18,162.86c0-4.3-1.79-6.8-4.7-6.8s-4.7,2.5-4.7,6.8,1.83,6.97,4.7,6.97,4.7-2.71,4.7-6.97Z"/>
    <path class="cls-2" d="M219.43,151.93h5.75l3.49,9.58c.41,1.29.78,2.61,1.18,3.99h.14c.41-1.39.74-2.71,1.18-3.99l3.35-9.58h5.75v22.03h-4.77v-7.65c0-2.17.44-5.92.71-8.09h-.14l-1.83,5.75-2.98,8.12h-2.98l-2.94-8.12-1.76-5.75h-.14c.27,2.17.71,5.92.71,8.09v7.65h-4.74v-22.03Z"/>
    <path class="cls-2" d="M252.12,151.93h5.75l3.49,9.58c.41,1.29.78,2.61,1.18,3.99h.14c.41-1.39.74-2.71,1.18-3.99l3.35-9.58h5.75v22.03h-4.77v-7.65c0-2.17.44-5.92.71-8.09h-.14l-1.83,5.75-2.98,8.12h-2.98l-2.94-8.12-1.76-5.75h-.14c.27,2.17.71,5.92.71,8.09v7.65h-4.74v-22.03Z"/>
    <path class="cls-2" d="M284.81,151.93h13.94v4.4h-8.66v4.13h7.41v4.4h-7.41v4.7h9v4.4h-14.28v-22.03Z"/>
    <path class="cls-2" d="M310.19,151.93h5.45l5.41,10.56c.78,1.49,1.49,3.25,2.17,4.97h.14c-.27-2.37-.68-5.52-.68-8.12v-7.41h4.97v22.03h-5.41l-5.45-10.56c-.74-1.49-1.46-3.25-2.13-4.97h-.14c.27,2.44.68,5.48.68,8.12v7.41h-5.01v-22.03Z"/>
    <path class="cls-2" d="M338.52,163.09c0-7.34,4.94-11.57,10.49-11.57,2.88,0,5.18,1.29,6.7,2.88l-2.77,3.18c-1.08-1.02-2.23-1.52-3.79-1.52-2.91,0-5.25,2.57-5.25,6.84s2.06,6.94,5.14,6.94c1.79,0,3.18-.71,4.23-1.83l2.74,3.11c-1.93,2.2-4.37,3.25-7.14,3.25-5.62,0-10.35-3.82-10.35-11.27Z"/>
    <path class="cls-2" d="M366.03,151.93h13.94v4.4h-8.66v4.13h7.41v4.4h-7.41v4.7h9v4.4h-14.28v-22.03Z"/>
    <path class="cls-2" d="M404.95,151.93h5.28v22.03h-5.28v-22.03Z"/>
    <path class="cls-2" d="M421.06,163.09c0-7.34,4.94-11.57,10.49-11.57,2.88,0,5.18,1.29,6.7,2.88l-2.77,3.18c-1.08-1.02-2.23-1.52-3.79-1.52-2.91,0-5.25,2.57-5.25,6.84s2.06,6.94,5.14,6.94c1.79,0,3.18-.71,4.23-1.83l2.74,3.11c-1.93,2.2-4.37,3.25-7.14,3.25-5.62,0-10.35-3.82-10.35-11.27Z"/>
    <path class="cls-2" d="M448.57,151.93h5.28v22.03h-5.28v-22.03Z"/>
  </g>
</svg>